<mxfile host="app.diagrams.net" modified="2021-02-17T12:21:12.361Z" agent="5.0 (Macintosh; Intel Mac OS X 11_2_1) AppleWebKit/537.36 (KHTML, like Gecko) Chrome/88.0.4324.150 Safari/537.36" etag="3nUCh9L9CCgQbw2-LPri" version="14.3.2" type="github">
  <diagram id="gEi0c6ULxLhcL9KIZzeO" name="Page-1">
    <mxGraphModel dx="825" dy="374" grid="1" gridSize="10" guides="1" tooltips="1" connect="1" arrows="1" fold="1" page="1" pageScale="1" pageWidth="827" pageHeight="1169" math="0" shadow="0">
      <root>
        <mxCell id="0" />
        <mxCell id="1" parent="0" />
        <mxCell id="NaHK_tMhCK8rq2DNxwgl-1" value="users&lt;br&gt;&lt;br&gt;&lt;div style=&quot;text-align: left&quot;&gt;&lt;span&gt;nickname&lt;/span&gt;&lt;/div&gt;&lt;div style=&quot;text-align: left&quot;&gt;&lt;span&gt;email&lt;/span&gt;&lt;/div&gt;&lt;div style=&quot;text-align: left&quot;&gt;encrypted_password&lt;/div&gt;&lt;div style=&quot;text-align: left&quot;&gt;lastname_ja&lt;/div&gt;&lt;div style=&quot;text-align: left&quot;&gt;firstname_ja&lt;/div&gt;&lt;div style=&quot;text-align: left&quot;&gt;&lt;div&gt;lastname_ka&lt;/div&gt;&lt;div&gt;firstname_ka&lt;/div&gt;&lt;div&gt;birth_date&lt;/div&gt;&lt;/div&gt;" style="rounded=0;whiteSpace=wrap;html=1;align=center;" parent="1" vertex="1">
          <mxGeometry x="10" y="99" width="120" height="189" as="geometry" />
        </mxCell>
        <mxCell id="NaHK_tMhCK8rq2DNxwgl-2" value="&lt;div&gt;&lt;span&gt;items&lt;/span&gt;&lt;/div&gt;&lt;div&gt;&lt;br&gt;&lt;/div&gt;&lt;div style=&quot;text-align: left&quot;&gt;&lt;span&gt;name&lt;/span&gt;&lt;/div&gt;&lt;div style=&quot;text-align: left&quot;&gt;text&lt;/div&gt;&lt;div style=&quot;text-align: left&quot;&gt;category_id&lt;/div&gt;&lt;div style=&quot;text-align: left&quot;&gt;status_id&lt;/div&gt;&lt;div style=&quot;text-align: left&quot;&gt;burden_id&lt;/div&gt;&lt;span&gt;&lt;div style=&quot;text-align: left&quot;&gt;&lt;span&gt;area_id&lt;/span&gt;&lt;/div&gt;&lt;/span&gt;&lt;div style=&quot;text-align: left&quot;&gt;days_id&lt;/div&gt;&lt;div style=&quot;text-align: left&quot;&gt;price&lt;/div&gt;&lt;div style=&quot;text-align: left&quot;&gt;user&lt;/div&gt;" style="rounded=0;whiteSpace=wrap;html=1;" parent="1" vertex="1">
          <mxGeometry x="200" y="93.5" width="90" height="190" as="geometry" />
        </mxCell>
        <mxCell id="NaHK_tMhCK8rq2DNxwgl-8" value="&lt;font color=&quot;#f19c99&quot;&gt;orders&lt;br&gt;&lt;br&gt;&lt;div style=&quot;text-align: left&quot;&gt;&lt;span&gt;user&lt;/span&gt;&lt;/div&gt;&lt;div style=&quot;text-align: left&quot;&gt;&lt;span&gt;item&lt;/span&gt;&lt;/div&gt;&lt;/font&gt;" style="ellipse;whiteSpace=wrap;html=1;aspect=fixed;strokeColor=#F19C99;" parent="1" vertex="1">
          <mxGeometry x="370" y="130" width="113.5" height="113.5" as="geometry" />
        </mxCell>
        <mxCell id="NaHK_tMhCK8rq2DNxwgl-9" value="&lt;font color=&quot;#f19c99&quot;&gt;shipping-addresses&lt;br&gt;&lt;br&gt;&lt;/font&gt;&lt;div style=&quot;text-align: left&quot;&gt;&lt;font color=&quot;#f19c99&quot;&gt;postal_code&lt;/font&gt;&lt;/div&gt;&lt;div style=&quot;text-align: left&quot;&gt;&lt;font color=&quot;#f19c99&quot;&gt;area_id&lt;/font&gt;&lt;/div&gt;&lt;div style=&quot;text-align: left&quot;&gt;&lt;font color=&quot;#f19c99&quot;&gt;municipalites&lt;/font&gt;&lt;/div&gt;&lt;div style=&quot;text-align: left&quot;&gt;&lt;font color=&quot;#f19c99&quot;&gt;address&lt;/font&gt;&lt;/div&gt;&lt;div style=&quot;text-align: left&quot;&gt;&lt;font color=&quot;#f19c99&quot;&gt;building_name&lt;/font&gt;&lt;/div&gt;&lt;div style=&quot;text-align: left&quot;&gt;&lt;font color=&quot;#f19c99&quot;&gt;phone_number&lt;/font&gt;&lt;/div&gt;&lt;div style=&quot;text-align: left&quot;&gt;&lt;font color=&quot;#f19c99&quot;&gt;order&lt;/font&gt;&lt;/div&gt;" style="ellipse;whiteSpace=wrap;html=1;aspect=fixed;strokeColor=#F19C99;" parent="1" vertex="1">
          <mxGeometry x="540" y="91.5" width="205" height="205" as="geometry" />
        </mxCell>
        <mxCell id="vYO40AL5wCR5Jdw7mFY_-8" value="" style="endArrow=none;html=1;strokeColor=#000000;fontColor=#000000;" edge="1" parent="1">
          <mxGeometry width="50" height="50" relative="1" as="geometry">
            <mxPoint x="140" y="208.5" as="sourcePoint" />
            <mxPoint x="140" y="178.5" as="targetPoint" />
          </mxGeometry>
        </mxCell>
        <mxCell id="vYO40AL5wCR5Jdw7mFY_-9" value="" style="endArrow=none;html=1;strokeColor=#000000;fontColor=#000000;exitX=0;exitY=0.636;exitDx=0;exitDy=0;exitPerimeter=0;" edge="1" parent="1" source="NaHK_tMhCK8rq2DNxwgl-2">
          <mxGeometry width="50" height="50" relative="1" as="geometry">
            <mxPoint x="130" y="240" as="sourcePoint" />
            <mxPoint x="180" y="190" as="targetPoint" />
            <Array as="points">
              <mxPoint x="180" y="190" />
            </Array>
          </mxGeometry>
        </mxCell>
        <mxCell id="vYO40AL5wCR5Jdw7mFY_-10" value="" style="endArrow=none;html=1;strokeColor=#000000;fontColor=#000000;" edge="1" parent="1">
          <mxGeometry width="50" height="50" relative="1" as="geometry">
            <mxPoint x="180" y="190" as="sourcePoint" />
            <mxPoint x="200" y="169" as="targetPoint" />
            <Array as="points" />
          </mxGeometry>
        </mxCell>
        <mxCell id="vYO40AL5wCR5Jdw7mFY_-12" value="" style="endArrow=none;html=1;strokeColor=#000000;fontColor=#000000;exitX=0.994;exitY=0.483;exitDx=0;exitDy=0;exitPerimeter=0;" edge="1" parent="1" source="NaHK_tMhCK8rq2DNxwgl-1">
          <mxGeometry width="50" height="50" relative="1" as="geometry">
            <mxPoint x="150" y="240" as="sourcePoint" />
            <mxPoint x="200" y="190" as="targetPoint" />
            <Array as="points" />
          </mxGeometry>
        </mxCell>
        <mxCell id="vYO40AL5wCR5Jdw7mFY_-13" value="" style="endArrow=none;html=1;strokeColor=#F19C99;fontColor=#000000;" edge="1" parent="1">
          <mxGeometry width="50" height="50" relative="1" as="geometry">
            <mxPoint x="530" y="203.5" as="sourcePoint" />
            <mxPoint x="530" y="173.5" as="targetPoint" />
            <Array as="points">
              <mxPoint x="530" y="183.5" />
            </Array>
          </mxGeometry>
        </mxCell>
        <mxCell id="vYO40AL5wCR5Jdw7mFY_-15" value="" style="endArrow=none;html=1;strokeColor=#F19C99;fontColor=#000000;" edge="1" parent="1">
          <mxGeometry width="50" height="50" relative="1" as="geometry">
            <mxPoint x="480" y="188.5" as="sourcePoint" />
            <mxPoint x="540" y="189" as="targetPoint" />
            <Array as="points">
              <mxPoint x="540" y="188.5" />
            </Array>
          </mxGeometry>
        </mxCell>
        <mxCell id="vYO40AL5wCR5Jdw7mFY_-19" value="" style="endArrow=none;html=1;strokeColor=#F19C99;fontColor=#000000;" edge="1" parent="1">
          <mxGeometry width="50" height="50" relative="1" as="geometry">
            <mxPoint x="220" y="70" as="sourcePoint" />
            <mxPoint x="260" y="70" as="targetPoint" />
            <Array as="points">
              <mxPoint x="240" y="70" />
            </Array>
          </mxGeometry>
        </mxCell>
        <mxCell id="vYO40AL5wCR5Jdw7mFY_-20" value="" style="endArrow=none;html=1;strokeColor=#F19C99;fontColor=#000000;entryX=0.444;entryY=-0.018;entryDx=0;entryDy=0;entryPerimeter=0;" edge="1" parent="1" target="NaHK_tMhCK8rq2DNxwgl-2">
          <mxGeometry width="50" height="50" relative="1" as="geometry">
            <mxPoint x="420" y="130" as="sourcePoint" />
            <mxPoint x="240" y="40" as="targetPoint" />
            <Array as="points">
              <mxPoint x="420" y="40" />
              <mxPoint x="240" y="40" />
            </Array>
          </mxGeometry>
        </mxCell>
        <mxCell id="vYO40AL5wCR5Jdw7mFY_-21" value="" style="endArrow=none;html=1;strokeColor=#000000;fontColor=#000000;exitX=0.444;exitY=1;exitDx=0;exitDy=0;exitPerimeter=0;" edge="1" parent="1" source="NaHK_tMhCK8rq2DNxwgl-1">
          <mxGeometry width="50" height="50" relative="1" as="geometry">
            <mxPoint x="380" y="293.5" as="sourcePoint" />
            <mxPoint x="430" y="243.5" as="targetPoint" />
            <Array as="points">
              <mxPoint x="63" y="320" />
              <mxPoint x="430" y="320" />
            </Array>
          </mxGeometry>
        </mxCell>
        <mxCell id="vYO40AL5wCR5Jdw7mFY_-22" value="" style="endArrow=none;html=1;strokeColor=#000000;fontColor=#000000;exitX=0.384;exitY=1.016;exitDx=0;exitDy=0;exitPerimeter=0;entryX=0.676;entryY=0.979;entryDx=0;entryDy=0;entryPerimeter=0;" edge="1" parent="1" source="NaHK_tMhCK8rq2DNxwgl-8" target="NaHK_tMhCK8rq2DNxwgl-8">
          <mxGeometry width="50" height="50" relative="1" as="geometry">
            <mxPoint x="414" y="260.5" as="sourcePoint" />
            <mxPoint x="454" y="260" as="targetPoint" />
            <Array as="points">
              <mxPoint x="430" y="270" />
            </Array>
          </mxGeometry>
        </mxCell>
        <mxCell id="vYO40AL5wCR5Jdw7mFY_-24" value="" style="endArrow=none;html=1;strokeColor=#F19C99;fontColor=#000000;" edge="1" parent="1">
          <mxGeometry width="50" height="50" relative="1" as="geometry">
            <mxPoint x="40" y="300" as="sourcePoint" />
            <mxPoint x="80" y="300" as="targetPoint" />
          </mxGeometry>
        </mxCell>
        <mxCell id="vYO40AL5wCR5Jdw7mFY_-25" value="" style="endArrow=none;html=1;strokeColor=#000000;fontColor=#000000;" edge="1" parent="1">
          <mxGeometry width="50" height="50" relative="1" as="geometry">
            <mxPoint x="410" y="110" as="sourcePoint" />
            <mxPoint x="439" y="110" as="targetPoint" />
            <Array as="points">
              <mxPoint x="420" y="110" />
              <mxPoint x="430" y="110" />
            </Array>
          </mxGeometry>
        </mxCell>
        <mxCell id="vYO40AL5wCR5Jdw7mFY_-26" value="" style="endArrow=none;html=1;strokeColor=#F19C99;fontColor=#000000;" edge="1" parent="1">
          <mxGeometry width="50" height="50" relative="1" as="geometry">
            <mxPoint x="490" y="200" as="sourcePoint" />
            <mxPoint x="490" y="173.5" as="targetPoint" />
            <Array as="points">
              <mxPoint x="490" y="193.5" />
            </Array>
          </mxGeometry>
        </mxCell>
      </root>
    </mxGraphModel>
  </diagram>
</mxfile>
